<?xml version="1.0" encoding="UTF-8" standalone="no"?>
<svg
   xmlns:dc="http://purl.org/dc/elements/1.1/"
   xmlns:cc="http://creativecommons.org/ns#"
   xmlns:rdf="http://www.w3.org/1999/02/22-rdf-syntax-ns#"
   xmlns:svg="http://www.w3.org/2000/svg"
   xmlns="http://www.w3.org/2000/svg"
   xmlns:sodipodi="http://sodipodi.sourceforge.net/DTD/sodipodi-0.dtd"
   xmlns:inkscape="http://www.inkscape.org/namespaces/inkscape"
   version="1.1"
   width="1593.8855"
   height="341.37939"
   id="svg1680"
   viewBox="0 0 1593.8855 341.37938"
   sodipodi:docname="Indofood_Asahi.svg"
   inkscape:version="0.92.4 (5da689c313, 2019-01-14)">
  <metadata
     id="metadata1686">
    <rdf:RDF>
      <cc:Work
         rdf:about="">
        <dc:format>image/svg+xml</dc:format>
        <dc:type
           rdf:resource="http://purl.org/dc/dcmitype/StillImage" />
        <dc:title></dc:title>
      </cc:Work>
    </rdf:RDF>
  </metadata>
  <defs
     id="defs1684" />
  <sodipodi:namedview
     pagecolor="#ffffff"
     bordercolor="#666666"
     borderopacity="1"
     objecttolerance="10"
     gridtolerance="10"
     guidetolerance="10"
     inkscape:pageopacity="0"
     inkscape:pageshadow="2"
     inkscape:window-width="1366"
     inkscape:window-height="745"
     id="namedview1682"
     showgrid="false"
     fit-margin-top="0"
     fit-margin-left="0"
     fit-margin-right="0"
     fit-margin-bottom="0"
     inkscape:zoom="0.39645504"
     inkscape:cx="984.36237"
     inkscape:cy="157.04137"
     inkscape:window-x="-8"
     inkscape:window-y="-8"
     inkscape:window-maximized="1"
     inkscape:current-layer="Layer1001" />
  <g
     id="Layer1000"
     transform="translate(429.2393,-278.2492)">
    <g
       id="Layer1001">
      <g
         id="Layer1004"
         transform="matrix(4.1059456,0,0,4.1059456,-1142.0667,-1394.38)">
        <g
           id="Layer1005">
          <g
             id="Layer1006">
            <path
               d="m 317.7704,435.6385 0.156,-0.2082 c 0.0599,-0.6547 0.2474,-1.0553 0.3508,-1.8403 l 0.7351,-3.7206 c 0.137,-0.5248 0.2851,-1.3628 0.2851,-1.9428 h 4.7986 c 0.0764,-0.9195 0.4913,-1.7216 0.514,-2.7421 -2.8892,0 -8.2273,0.8474 -8.0445,-2.2053 0.0764,-1.2771 1.1582,-2.5043 2.795,-1.4578 1.0982,0.7022 1.6492,1.7741 2.6789,2.4636 0.5991,-0.1599 0.3109,-0.0881 0.7355,-0.4641 l 2.2866,-1.9978 c 0.7735,-0.6652 2.1192,-1.6951 2.2905,-2.3366 -0.5378,-0.1436 -0.1816,-0.0301 -0.5348,-0.3221 -2.2006,-1.8193 -4.5147,-3.3467 -7.627,-2.1844 -2.3291,0.8699 -4.5515,3.6145 -6.0391,5.6145 -1.1308,1.5203 -2.0912,2.8486 -4.6503,3.0614 -0.0777,0.9326 -0.5142,1.5437 -0.5142,2.7421 h 3.9416 c -0.3438,0.7167 -0.7242,4.6521 -0.9244,5.9306 -0.1069,0.683 -0.3293,1.4436 -0.4016,1.9976 l -1.0474,5.979 c -0.4862,2.9255 -2.1925,10.4969 -3.5076,12.9446 -0.2946,0.5484 -0.5732,0.9511 -0.8982,1.501 -0.8414,1.4241 -2.1056,2.6432 -3.5954,3.4309 -0.712,0.3764 -0.6356,0.2664 -1.744,0.4839 -2.9756,0.5839 -7.1133,-0.3874 -7.8436,-3.7389 -0.5702,-2.6167 1.818,-5.1858 4.0141,-5.2318 3.1075,-0.0651 6.3162,0.0101 9.4359,0.0101 0.0865,-1.0399 0.5141,-0.9401 0.5141,-2.5706 -2.3534,0 -9.0629,-0.2933 -10.8741,0.094 -1.746,0.3735 -2.9846,1.0221 -4.1011,2.0685 -0.8203,0.7689 -1.6165,1.7563 -1.9138,2.8846 -0.4302,1.6321 -0.1414,3.2635 0.4659,4.521 2.4717,5.1178 8.8492,5.5869 13.5377,3.8271 l 1.8926,-0.8493 c 0.6176,-0.3576 1.1102,-0.6777 1.6558,-1.0863 1.5144,-1.1339 2.9677,-2.6478 4.0341,-4.1917 1.1558,-1.6736 2.6648,-4.2415 3.4028,-6.1944 0.1558,-0.4123 0.1806,-0.5958 0.3564,-1.0147 l 1.6568,-5.1981 c 0.1119,-0.3959 0.1291,-0.6585 0.2455,-1.1255 0.1987,-0.7987 0.3437,-1.3303 0.5414,-2.2007 z"
               style="fill:#004b94;fill-rule:evenodd"
               id="path1618"
               inkscape:connector-curvature="0" />
            <path
               d="m 393.3448,441.6366 0.1582,-0.2211 c 0.0883,-0.9317 0.3645,-2.0254 0.5352,-3.0139 l 4.2633,-21.443 c -1.7295,0 -6.9779,0.9514 -8.402,1.0237 -1.0974,0.0558 -1.939,0.1636 -2.9209,0.3352 -0.7387,0.1292 -0.5804,0.0655 -0.7889,0.7564 -0.6241,2.0678 -0.1923,1.3858 0.6146,1.375 0.1871,-0.003 1.1548,0.0972 1.4826,0.183 1.9336,0.5063 1.2419,2.4857 0.7603,4.5526 -2.8654,0 -4.0713,-0.0749 -6.8117,0.9004 l -1.566,0.6617 c -0.2033,0.0988 -0.3366,0.1586 -0.574,0.283 -0.1142,0.06 -0.4244,0.223 -0.5552,0.3016 -3.046,1.8303 -4.6887,4.2737 -6.0555,7.4833 -1.2843,3.0159 -1.7556,7.2276 0.4536,9.9346 1.1245,1.3781 2.022,1.7947 4.0721,2.2689 1.9978,0.4619 3.8856,0.3596 5.7241,-0.0688 0.1171,-0.5026 0.2975,-1.3426 0.3428,-1.8851 -6.8154,-0.5671 -2.4597,-12.3951 -0.5024,-14.7266 0.0321,-0.0382 0.1251,-0.1472 0.1571,-0.1855 l 0.6591,-0.7119 c 1.4164,-1.1879 2.1898,-1.3421 4.1418,-1.3421 l -0.6902,3.4228 c -0.1266,0.5144 -0.114,0.7046 -0.2135,1.3289 -0.3883,2.438 -2.6951,12.9691 -2.6951,14.2709 l 8.6633,-1.1051 c 1.1537,-0.1845 2.4219,-0.1453 2.9902,-0.4372 0.4856,-0.196 0.2505,0.0816 0.5149,-0.6849 0.1364,-0.396 0.1707,-0.6487 0.1707,-1.2003 -1.531,0 -3.8084,0.3112 -3.9285,-2.0565 z"
               style="fill:#004f9e;fill-rule:evenodd"
               id="path1620"
               inkscape:connector-curvature="0" />
            <path
               d="m 271.8264,420.5575 c 1.0444,-0.0233 1.1084,-0.2192 2.3554,0.0428 0.3099,0.065 0.6755,0.2094 0.9238,0.4482 1.1281,1.0853 0.0144,2.4525 -0.0231,4.136 -3.0064,0 -2.6228,-0.152 -5.5001,0.4981 -1.8244,0.4122 -4.0383,1.4689 -5.4406,2.614 -0.0394,0.0324 -0.1924,0.1631 -0.2786,0.2357 l -0.2792,0.2348 c -0.9929,0.8445 -1.8182,1.8612 -2.5227,2.9614 -1.9031,2.972 -3.6851,7.9601 -2.123,11.3141 l 1.4202,2.1787 c 0.0256,0.0243 0.0632,0.0583 0.0891,0.0822 0.6395,0.5891 1.4998,1.2089 2.3378,1.4325 2.1635,0.5774 2.5176,0.556 4.5852,0.556 1.0943,0 1.5026,-0.2682 2.3993,-0.3428 0.0166,-0.7456 0.1714,-0.9347 0.1714,-1.8851 -3.5893,-0.2987 -3.9159,-4.0232 -3.355,-6.9538 0.5872,-3.0691 1.5324,-6.859 4.0107,-8.8424 1.1146,-0.892 1.9943,-1.1699 3.9714,-1.1699 -0.8562,3.6752 -1.6269,9.0581 -2.3318,11.7211 l -0.8865,4.7687 c -0.2171,0.9573 -0.3806,1.3733 -0.3806,2.5328 l 11.9963,-1.5423 c 0.04,-1.7976 1.2514,-1.8677 -1.2036,-1.8808 -0.8891,-0.005 -1.6224,-0.2484 -2.0529,-0.8609 -0.6507,-0.9258 -0.1835,-1.3556 -0.046,-2.2746 0.5785,-3.8701 1.8549,-8.8661 2.4732,-12.6078 l 0.612,-3.1582 c 0.1235,-0.6693 0.1431,-0.9502 0.2896,-1.5956 l 1.2987,-6.2418 c -1.4618,0 -2.2531,0.1827 -3.521,0.4207 l -3.6756,0.4373 c -1.0895,0.1887 -2.3618,0.2367 -3.5305,0.4112 -0.6754,0.1008 -1.5632,-0.3155 -1.7833,2.3297 z"
               style="fill:#004f9e;fill-rule:evenodd"
               id="path1622"
               inkscape:connector-curvature="0" />
            <path
               d="m 246.7706,446.6066 -0.1364,0.221 c 0.4414,0.1988 2.5025,-0.1003 3.1155,-0.1904 l 6.6834,-0.8571 c 0.9332,-0.081 1.1908,0.2171 1.4825,-0.4026 0.0996,-0.2115 0.2008,-1.3179 0.2008,-1.6844 -3.9032,0 -2.9053,-0.9346 -2.0594,-6.0009 0.5855,-3.507 2.5815,-9.7649 -0.2695,-12.0639 -2.5093,-2.0235 -6.8571,-0.3922 -9.3349,1.0885 -0.6263,0.3742 -0.9835,0.671 -1.5322,1.0384 0,-1.1621 0.3427,-1.1636 0.3427,-2.5707 -2.7982,0 -2.838,0.3544 -4.1343,0.4928 -0.5201,0.0555 -0.9156,0.015 -1.4522,0.0903 l -5.5528,0.788 c -0.0166,0.7457 -0.1713,0.9348 -0.1713,1.8851 1.2536,0 2.5282,-0.1177 2.5845,1.8734 0.0659,2.3271 -2.2022,11.2376 -2.5764,14.0726 -0.1331,1.0076 -0.4498,1.6906 -0.5224,2.5625 h 7.7119 l 2.7259,-14.0688 c 0.2791,-1.4211 0.4542,-2.9162 2.4526,-3.2076 0.9633,-0.1405 1.7285,-0.0199 2.2438,0.4286 1.5948,1.3879 0.4597,4.7838 0.0201,6.9814 z"
               style="fill:#004f9e;fill-rule:evenodd"
               id="path1624"
               inkscape:connector-curvature="0" />
            <path
               d="m 230.8745,433.4106 0.1646,-0.2297 c 0.0121,-0.4701 1.7268,-10.0174 2.2737,-10.8639 0.005,-0.007 0.1951,-0.2788 0.2131,-0.301 0.9182,-1.1286 2.6003,-1.1158 4.3681,-1.1158 l -0.5141,-2.5706 h -16.452 c -0.3207,0.6061 -0.8427,1.937 -0.8569,2.5706 5.1576,0 3.6869,2.7801 3.2055,5.7761 L 219.96,443.925 c -0.7741,3.1403 -1.0655,4.9094 -5.3731,4.9094 0,0.831 0.2562,2.0329 0.5142,2.5706 h 16.2807 c 0.3381,-0.6391 0.8395,-1.7906 0.8568,-2.5706 -4.9079,0 -3.6282,-2.7064 -3.453,-3.9672 0.0802,-0.5772 0.0557,-0.7776 0.1562,-1.2147 0.4277,-1.8588 1.9162,-9.17 1.9327,-10.2419 z"
               style="fill:#004f9e;fill-rule:evenodd"
               id="path1626"
               inkscape:connector-curvature="0" />
            <path
               d="m 357.5141,445.0641 c -4.7177,0 -1.8375,-12.3608 -0.2037,-15.4561 1.6975,-3.2159 4.4076,-3.2225 5.3995,-0.7078 0.6007,1.523 0.3047,3.1739 0.2911,4.8559 -0.0151,1.8485 -0.6369,4.2889 -1.0779,5.9486 l -1.1865,2.9265 c -0.5807,1.005 -1.7367,2.4329 -3.2225,2.4329 z m -0.5142,2.7421 c 2.3103,0 4.1046,-0.3266 6.1138,-1.2555 1.749,-0.8086 2.417,-1.4175 3.4061,-2.2491 0.1562,-0.1314 0.1458,-0.1194 0.2788,-0.2354 1.6882,-1.4714 2.8804,-3.4732 3.6737,-5.5807 1.4497,-3.8516 0.2438,-8.6302 -2.7152,-11.3762 -1.2318,-1.1431 -3.4437,-2.2123 -5.2204,-2.4915 -2.73,-0.4288 -4.4567,-0.3226 -7.0755,0.7419 -4.0363,1.6408 -7.3652,5.1477 -8.3309,9.4919 -1.5883,7.1438 3.7658,12.9546 9.8696,12.9546 z"
               style="fill:#004f9e;fill-rule:evenodd"
               id="path1628"
               inkscape:connector-curvature="0" />
            <path
               d="m 331.4651,445.0641 c -3.8157,0 -2.3009,-8.2557 -1.8437,-10.4125 0.4703,-2.2185 1.9475,-7.9013 5.0081,-7.4974 3.0494,0.4024 2.6526,5.32 2.2676,7.5755 -0.0872,0.5108 -0.1316,1.4722 -0.2495,1.9783 -0.5819,2.4991 -1.7128,8.3561 -5.1825,8.3561 z m -10.6254,-8.2259 c 0,2.8186 0.1839,3.5792 1.4503,5.9189 3.8687,7.1481 16.0037,6.8587 21.1665,-1.9821 2.6174,-4.4819 2.0506,-10.2903 -1.8384,-13.7472 -0.8968,-0.797 -1.9007,-1.3892 -3.0979,-1.872 -2.6178,-1.0557 -4.271,-0.8746 -7.0106,-0.4408 -1.023,0.162 -2.507,0.8439 -3.4507,1.3477 -0.4089,0.2185 -0.6944,0.352 -1.108,0.6058 l -2.3236,1.961 c -1.0495,1.0957 -1.5998,1.7957 -2.3381,3.1458 -0.6265,1.1458 -1.4495,3.3931 -1.4495,5.0629 z"
               style="fill:#004f9e;fill-rule:evenodd"
               id="path1630"
               inkscape:connector-curvature="0" />
            <path
               d="m 299.075,429.5807 0.1631,0.231 c 0.0796,4.2015 -0.0443,7.1497 -1.512,11.1615 -0.5448,1.4888 -1.4062,3.114 -2.7568,3.7558 -2.1582,1.0257 -3.0696,-0.4424 -3.5937,-2.2479 -1.1401,-3.9283 1.7586,-18.1455 6.5842,-14.9816 0.5628,0.369 1.0382,1.2907 1.1152,2.0812 z m -5.8268,18.2255 c 2.3908,0 4.0314,-0.3242 5.9964,-1.2014 1.7308,-0.7727 2.5398,-1.476 3.5236,-2.3032 0.791,-0.6652 1.8612,-1.8387 2.4046,-2.7368 2.7069,-4.4742 3.1326,-8.9082 -0.0498,-13.1739 -0.9846,-1.3196 -1.9444,-2.0099 -3.3849,-2.7845 -4.6115,-2.4798 -9.7121,-1.0145 -13.7792,2.0007 -4.0131,2.9751 -6.4121,9.4606 -3.8318,14.4106 1.811,3.4741 5.2061,5.7885 9.1211,5.7885 z"
               style="fill:#004f9e;fill-rule:evenodd"
               id="path1632"
               inkscape:connector-curvature="0" />
            <path
               d="m 315.5271,451.405 h 80.8892 c 0.1948,-0.8362 0.5142,-1.5057 0.5142,-2.5706 h -80.2037 c -0.6767,0 -0.4501,0.547 -0.6906,1.1946 -0.1863,0.5014 -0.3559,0.7186 -0.5091,1.376 z"
               style="fill:#004e9e;fill-rule:evenodd"
               id="path1634"
               inkscape:connector-curvature="0" />
            <path
               d="m 233.781,451.405 h 54.326 c 0.193,-0.7224 0.6128,-1.149 1.1299,-1.6122 0.5112,-0.458 0.6394,-0.5632 1.2694,-0.6157 l -56.0398,-0.3427 c -0.2,0.8588 -0.6057,1.611 -0.6855,2.5706 z"
               style="fill:#004e9e;fill-rule:evenodd"
               id="path1636"
               inkscape:connector-curvature="0" />
            <path
               d="m 299.2381,429.8117 -0.1631,-0.231 z"
               style="fill:#002689;fill-rule:evenodd"
               id="path1638"
               inkscape:connector-curvature="0" />
            <path
               d="m 231.0391,433.1809 -0.1646,0.2297 z"
               style="fill:#002b83;fill-rule:evenodd"
               id="path1640"
               inkscape:connector-curvature="0" />
            <path
               d="m 317.9264,435.4303 -0.156,0.2082 z"
               style="fill:#00238d;fill-rule:evenodd"
               id="path1642"
               inkscape:connector-curvature="0" />
            <path
               d="m 393.503,441.4155 -0.1582,0.2211 z"
               style="fill:#002689;fill-rule:evenodd"
               id="path1644"
               inkscape:connector-curvature="0" />
            <path
               d="m 246.7706,446.6066 -0.1364,0.221 z"
               style="fill:#002689;fill-rule:evenodd"
               id="path1646"
               inkscape:connector-curvature="0" />
          </g>
          <g
             id="Layer1007">
            <path
               d="m 403.588,443.4433 c 0,4.0332 1.6971,8.3545 4.1771,8.3545 2.7604,0 9.8738,-8.9941 12.4751,-11.0692 1.3927,-1.111 3.3569,-2.2589 3.854,-4.1206 -2.5412,-1.2194 -10.2532,1.0754 -10.2532,-2.2786 0,-2.4591 8.406,-11.0403 10.6329,-12.5315 0,5.1935 0.0203,10.39 0.0131,15.5826 -0.003,1.9228 -0.8167,11.2624 -0.2761,13.1613 0.1684,0.5917 0.0922,1.736 1.587,1.2898 0.6077,-0.1814 0.4246,-0.1461 0.8358,-0.476 2.226,-1.7858 8.0341,-8.9085 9.992,-9.4313 l 0.0407,-32.3249 c -0.0786,-5.1367 -3.1558,-0.4459 -9.2495,5.6479 l -8.7911,9.0568 c -0.053,0.0575 -0.1303,0.1391 -0.1831,0.1967 -5.0559,5.5197 -14.8547,13.0636 -14.8547,18.9425 z"
               style="fill:#004f9e;fill-rule:evenodd"
               id="path1649"
               inkscape:connector-curvature="0" />
            <path
               d="m 483.3343,415.7219 v 34.5568 c 0,1.1587 0.3646,1.5324 0.7594,2.2785 1.5528,-0.4146 8.4205,-7.902 8.4228,-7.9063 1.3039,-2.4442 -0.4236,-9.8972 0.6199,-11.9117 0.4552,-0.8787 1.3394,-1.5576 2.3497,-1.8274 0,4.0319 -0.7253,19.3424 0.3798,21.6454 1.4065,-0.3756 8.7341,-7.7574 8.7341,-8.7342 v -22.7847 c 0,-2.326 -2.1482,0.026 -2.7579,0.6572 l -5.9762,5.4189 c -1.178,0.8995 -1.8799,1.8826 -3.038,2.6581 0,-15.9874 0.4262,-21.7497 -0.6214,-22.4049 h -0.5078 c -0.9825,0.4161 -2.7282,2.7837 -5.7965,5.6057 -0.8814,0.8107 -2.5679,1.5252 -2.5679,2.7486 z"
               style="fill:#004f9e;fill-rule:evenodd"
               id="path1651"
               inkscape:connector-curvature="0" />
            <path
               d="m 438.1447,430.9118 c 0,4.5896 12.5316,11.5133 12.5316,15.1898 0,1.352 -2.0656,3.4176 -3.4177,3.4176 -3.2054,0 0.3062,-4.9467 -1.8987,-9.1138 -1.3859,0.9279 -7.5949,6.0346 -7.5949,7.9746 0,2.8499 5.9753,3.4178 8.7341,3.4178 3.4185,0 11.0125,-8.816 11.0125,-9.8735 0,-3.1913 -0.5136,-2.9905 -2.753,-5.2216 -1.2338,-1.2294 -2.186,-2.1857 -3.4177,-3.4176 -4.7925,-4.7924 -8.3071,-6.6437 -4.9667,-9.7135 0.9647,-0.8865 1.4395,-1.0143 3.1628,-1.0143 1.3958,5.9911 -1.3538,11.1717 2.1835,7.9244 3.5049,-3.2175 11.496,-8.1499 0.8089,-10.1751 -5.6234,-1.0655 -7.5673,2.0814 -10.8721,5.3836 -1.2814,1.2805 -3.5126,2.9351 -3.5126,5.2216 z"
               style="fill:#004f9e;fill-rule:evenodd"
               id="path1653"
               inkscape:connector-curvature="0" />
            <path
               d="m 465.1065,440.4054 c 0,-3.9686 2.9757,-8.3059 5.3165,-9.8734 0,3.039 -0.0249,6.0882 0.0119,9.1258 0.0285,2.3546 0.3461,3.5356 -3.4297,6.0639 -0.8253,-1.5597 -1.8987,-2.9494 -1.8987,-5.3163 z m -2.2784,11.7721 7.507,-7.3033 c 0.3826,5.382 -1.1088,9.9778 3.2233,5.503 1.0968,-1.133 5.9785,-5.2235 5.9785,-6.5542 v -23.5441 c -1.6656,0.037 -1.476,0.0986 -2.4003,1.0175 l -12.6994,12.7434 c -4.5599,4.922 -10.0285,13.6827 -1.6091,18.1377 z"
               style="fill:#004f9e;fill-rule:evenodd"
               id="path1655"
               inkscape:connector-curvature="0" />
            <path
               d="m 508.3974,427.1142 v 25.0633 c 1.8079,0.3828 1.6269,-0.2978 4.8417,-3.5128 0.9067,-0.9066 4.2722,-3.6443 4.2722,-4.8417 v -22.7847 -0.7409 c -0.029,0.0167 -0.1213,0.1232 -0.3797,-0.3982 -1.486,0.3966 -6.2142,5.5277 -8.7342,7.215 z"
               style="fill:#004f9e;fill-rule:evenodd"
               id="path1657"
               inkscape:connector-curvature="0" />
            <path
               d="m 508.3974,415.3422 c 0,9.6724 -1.2225,12.169 5.3612,4.9815 l 2.7477,-2.9486 c 0.5509,-0.631 0.851,-1.1806 1.005,-1.827 v -7.0412 c 0,-3.0861 -4.1132,1.6643 -4.6444,2.1909 -0.9816,0.9728 -4.4695,3.3349 -4.4695,4.6444 z"
               style="fill:#004f9e;fill-rule:evenodd"
               id="path1659"
               inkscape:connector-curvature="0" />
          </g>
        </g>
        <g
           id="Layer1008">
          <path
             d="m 551.7994,434.7296 c 25.3366,22.9913 5.1264,46.7585 -90.7233,55.5146 21.6684,-4.3682 121.399,-15.4928 90.7233,-55.5146 z"
             style="fill:#2c51a1;fill-rule:evenodd"
             id="path1663"
             inkscape:connector-curvature="0" />
          <path
             d="m 538.3865,431.9351 c 33.1612,29.4182 -13.4101,46.2931 -109.2598,55.0492 21.6683,-4.3682 145.5239,-13.4439 109.2598,-55.0492 z"
             style="fill:#0495c1;fill-rule:evenodd"
             id="path1665"
             inkscape:connector-curvature="0" />
          <path
             d="m 524.5082,432.1681 c 31.7635,27.3694 -14.0888,48.3794 -120.1584,46.4326 33.2393,-0.1831 156.0493,-4.9202 120.1584,-46.4326 z"
             style="fill:#00b326;fill-rule:evenodd"
             id="path1667"
             inkscape:connector-curvature="0" />
        </g>
        <g
           id="Layer1009">
          <path
             d="m 183.6074,434.9957 c -25.3366,22.9914 -5.1265,46.7586 90.7232,55.5146 -21.6683,-4.3681 -121.3989,-15.4927 -90.7232,-55.5146 z"
             style="fill:#2c51a1;fill-rule:evenodd"
             id="path1670"
             inkscape:connector-curvature="0" />
          <path
             d="m 197.0203,432.2012 c -33.1612,29.4183 13.4101,46.2931 109.2598,55.0492 -21.6683,-4.3682 -145.5239,-13.4439 -109.2598,-55.0492 z"
             style="fill:#0495c1;fill-rule:evenodd"
             id="path1672"
             inkscape:connector-curvature="0" />
          <path
             d="m 210.8986,432.4343 c -31.7636,27.3693 14.0888,48.3793 120.1584,46.4325 -33.2394,-0.1831 -156.0493,-4.9202 -120.1584,-46.4325 z"
             style="fill:#00b326;fill-rule:evenodd"
             id="path1674"
             inkscape:connector-curvature="0" />
        </g>
      </g>
    </g>
  </g>
</svg>
